<svg xmlns="http://www.w3.org/2000/svg" xmlns:xlink="http://www.w3.org/1999/xlink" viewBox="0 0 519.1 474.1"><defs><style>.cls-1{fill:url(#linear-gradient);}.cls-2{fill:url(#linear-gradient-2);}.cls-3{opacity:0.5;}.cls-4{fill:#003845;}.cls-5{fill:url(#linear-gradient-3);}.cls-6{fill:url(#linear-gradient-4);}.cls-7{fill:#d81f26;}.cls-8{fill:url(#New_Gradient_Swatch_1);}.cls-9{fill:#6cacde;}.cls-10{fill:url(#linear-gradient-5);}.cls-11{fill:url(#linear-gradient-6);}.cls-12{fill:url(#linear-gradient-7);}.cls-13{fill:#fccd42;}.cls-14{fill:#fee658;}.cls-15{fill:#f1b61c;}.cls-16{fill:#f9c41d;}.cls-17{fill:#fff;}</style><linearGradient id="linear-gradient" x1="-1856.78" y1="2567.11" x2="-1382.68" y2="2567.11" gradientTransform="translate(2826.66 1856.78) rotate(90)" gradientUnits="userSpaceOnUse"><stop offset="0" stop-color="#fee658"/><stop offset="1" stop-color="#f1b61c"/></linearGradient><linearGradient id="linear-gradient-2" x1="-1838.52" y1="2567.11" x2="-1400.94" y2="2567.11" gradientTransform="translate(2826.66 1856.78) rotate(90)" gradientUnits="userSpaceOnUse"><stop offset="0" stop-color="#4eb74a"/><stop offset="1" stop-color="#003845"/></linearGradient><linearGradient id="linear-gradient-3" x1="132.95" y1="240.97" x2="252.77" y2="240.97" gradientUnits="userSpaceOnUse"><stop offset="0" stop-color="#4eb74a"/><stop offset="1" stop-color="#008c45"/></linearGradient><linearGradient id="linear-gradient-4" x1="132.95" y1="240.97" x2="249.87" y2="240.97" gradientTransform="matrix(1, 0, 0, 1, 0, 0)" xlink:href="#linear-gradient-2"/><linearGradient id="New_Gradient_Swatch_1" x1="721.69" y1="240.97" x2="838.61" y2="240.97" gradientTransform="matrix(-1, 0, 0, 1, 1107.84, 0)" gradientUnits="userSpaceOnUse"><stop offset="0" stop-color="#d81f26"/><stop offset="1" stop-color="#560f0f"/></linearGradient><linearGradient id="linear-gradient-5" x1="191.41" y1="417.91" x2="191.41" y2="258.84" gradientUnits="userSpaceOnUse"><stop offset="0" stop-color="#2b499e"/><stop offset="1" stop-color="#3f72b8"/></linearGradient><linearGradient id="linear-gradient-6" x1="266.33" y1="338.37" x2="386.15" y2="338.37" xlink:href="#linear-gradient-3"/><linearGradient id="linear-gradient-7" x1="721.69" y1="338.37" x2="838.61" y2="338.37" gradientTransform="matrix(-1, 0, 0, 1, 1107.84, 0)" xlink:href="#linear-gradient-2"/></defs><g id="Layer_2" data-name="Layer 2"><g id="Layer_1-2" data-name="Layer 1"><path class="cls-1" d="M422.85,45.81l84,145.43a91.58,91.58,0,0,1,0,91.61l-84,145.44a91.59,91.59,0,0,1-79.33,45.81H175.58a91.61,91.61,0,0,1-79.34-45.81l-84-145.44a91.63,91.63,0,0,1,0-91.61l84-145.43A91.61,91.61,0,0,1,175.58,0H343.52A91.59,91.59,0,0,1,422.85,45.81Z"/><path class="cls-2" d="M18.26,237.05a73.47,73.47,0,0,1,9.83-36.68l84-145.43a73.59,73.59,0,0,1,63.53-36.68H343.51A73.56,73.56,0,0,1,407,54.94l84,145.43a73.4,73.4,0,0,1,0,73.35L407,419.16a73.56,73.56,0,0,1-63.53,36.68H175.58a73.59,73.59,0,0,1-63.53-36.68l-84-145.44A73.4,73.4,0,0,1,18.26,237.05Z"/><g class="cls-3"><path class="cls-4" d="M247.87,327.57c-10.77-8.6-22.56-16.92-34-25C164.57,267.77,113.55,231.75,134.67,165L136,160.8l3.58,2.62c10.13,7.38,20.12,14.21,29.79,20.83C224.48,221.93,268,251.7,253,325.71l-1,5.12Z"/><path class="cls-4" d="M137.71,166c-25.17,79.54,54.83,113.3,112.16,159.08C267,240.39,205.23,215.21,137.71,166Z"/><path class="cls-4" d="M266.09,325.71c-15-74,28.53-103.78,83.63-141.47,9.66-6.61,19.65-13.44,29.78-20.82l3.59-2.62,1.33,4.24c21.12,66.71-29.9,102.73-79.23,137.55-11.41,8.06-23.19,16.38-34,25l-4.08,3.26Z"/><path class="cls-4" d="M269.23,325.08C326.56,279.3,406.56,245.54,381.38,166,313.86,215.21,252.06,240.39,269.23,325.08Z"/><path class="cls-4" d="M247.87,425c-10.77-8.6-22.57-16.92-34-25-49.34-34.83-100.35-70.84-79.23-137.55L136,258.2l3.58,2.62c10.13,7.38,20.12,14.21,29.79,20.82C224.48,319.33,268,349.1,253,423.11l-1,5.13Z"/><path class="cls-4" d="M137.71,263.4c-25.17,79.54,54.83,113.3,112.16,159.08C267,337.79,205.23,312.61,137.71,263.4Z"/><path class="cls-4" d="M266.09,423.11c-15-74,28.53-103.78,83.63-141.47,9.66-6.61,19.65-13.44,29.78-20.82l3.59-2.62,1.33,4.24c21.12,66.71-29.89,102.72-79.23,137.55-11.4,8.06-23.19,16.38-34,25l-4.08,3.27Z"/><path class="cls-4" d="M269.23,422.48c57.33-45.78,137.33-79.54,112.15-159.08C313.86,312.61,252.06,337.79,269.23,422.48Z"/><path class="cls-4" d="M261.13,212.87c-22.29,0-40.61-7.59-51.58-21.39-10.48-13.19-13.52-31-8.77-51.53,3.51-15.19,11.19-31.58,22.84-48.7,1.82-2.67,3.51-5.45,5.51-8,12.22-15.72,28.57-39.32,32-59C264,41.39,281,69.33,293,83.08c2.18,2.49,3.75,5.45,5.6,8.17,11.65,17.12,19.33,33.5,22.85,48.68l.08.38c4.63,20.37,1.57,38.06-8.86,51.17C301.75,205.28,283.43,212.87,261.13,212.87Z"/></g><path class="cls-5" d="M137.71,161.44C205.23,210.65,267,235.82,249.87,320.51,192.54,274.73,112.54,241,137.71,161.44Z"/><path class="cls-6" d="M137.71,161.44c7.38,91.37,109,81.25,112.16,159.07C192.54,274.73,112.54,241,137.71,161.44Z"/><path class="cls-7" d="M381.38,161.44c-67.52,49.21-129.32,74.38-112.15,159.07C326.56,274.73,406.56,241,381.38,161.44Z"/><path class="cls-8" d="M381.38,161.44c-7.37,91.37-109,81.25-112.15,159.07C326.56,274.73,406.56,241,381.38,161.44Z"/><path class="cls-9" d="M137.71,258.84C205.23,308.05,267,333.22,249.87,417.91,192.54,372.13,112.54,338.37,137.71,258.84Z"/><path class="cls-10" d="M137.71,258.84c7.38,91.37,109,81.25,112.16,159.07C192.54,372.13,112.54,338.37,137.71,258.84Z"/><path class="cls-11" d="M381.38,258.84c-67.52,49.21-129.32,74.38-112.15,159.07C326.56,372.13,406.56,338.37,381.38,258.84Z"/><path class="cls-12" d="M381.38,258.84c-7.37,91.37-109,81.25-112.15,159.07C326.56,372.13,406.56,338.37,381.38,258.84Z"/><path class="cls-13" d="M261.13,172.26v32.85c-40.2,0-67.26-25.68-57.24-69C210.53,159.23,232.51,172.26,261.13,172.26Z"/><path class="cls-14" d="M261.13,24.25v148c-28.62,0-50.6-13-57.24-36.16C207.15,122,214.33,106,226.26,88.49,241,66.8,257.52,45.06,261.13,24.25Z"/><path class="cls-15" d="M261.13,205.11V172.26c28.62,0,50.6-13,57.25-36.16C328.4,179.43,301.34,205.11,261.13,205.11Z"/><path class="cls-16" d="M318.38,136.08v0c-6.65,23.13-28.63,36.16-57.25,36.16v-148C264.75,45.06,281.27,66.8,296,88.49,307.94,106,315.11,122,318.38,136.08Z"/><path class="cls-17" d="M240.23,129.85a7.93,7.93,0,1,1-7.93-7.93A7.93,7.93,0,0,1,240.23,129.85Z"/><path class="cls-17" d="M246.7,98.54a4.81,4.81,0,1,1-4.81-4.8A4.81,4.81,0,0,1,246.7,98.54Z"/></g></g></svg>